<svg width="179" height="48" viewBox="0 0 179 48" fill="none" xmlns="http://www.w3.org/2000/svg">
<g filter="url(#filter0_d_1_67)">
<path d="M4.34943 12.1811V7.36364H27.0469V12.1811H18.5859V35H12.8104V12.1811H4.34943ZM33.767 35.3913C32.4446 35.3913 31.2661 35.1619 30.2315 34.7031C29.197 34.2353 28.3783 33.5471 27.7756 32.6385C27.1818 31.7209 26.8849 30.5784 26.8849 29.2109C26.8849 28.0594 27.0964 27.0923 27.5192 26.3097C27.942 25.527 28.5178 24.8973 29.2464 24.4205C29.9751 23.9437 30.8028 23.5838 31.7294 23.3409C32.665 23.098 33.6456 22.9271 34.6712 22.8281C35.8767 22.7022 36.8482 22.5852 37.5859 22.4773C38.3236 22.3603 38.8589 22.1894 39.1918 21.9645C39.5246 21.7396 39.6911 21.4067 39.6911 20.9659V20.8849C39.6911 20.0303 39.4212 19.3691 38.8814 18.9013C38.3506 18.4335 37.5949 18.1996 36.6143 18.1996C35.5798 18.1996 34.7566 18.429 34.1449 18.8878C33.5331 19.3376 33.1283 19.9044 32.9304 20.5881L27.6136 20.1562C27.8835 18.8968 28.4143 17.8082 29.206 16.8906C29.9976 15.964 31.0187 15.2533 32.2692 14.7585C33.5286 14.2547 34.986 14.0028 36.6413 14.0028C37.7929 14.0028 38.8949 14.1378 39.9474 14.4077C41.009 14.6776 41.9491 15.0959 42.7678 15.6626C43.5954 16.2294 44.2476 16.9581 44.7244 17.8487C45.2012 18.7303 45.4396 19.7874 45.4396 21.0199V35H39.9879V32.1257H39.826C39.4931 32.7734 39.0478 33.3447 38.4901 33.8395C37.9323 34.3253 37.2621 34.7076 36.4794 34.9865C35.6967 35.2564 34.7926 35.3913 33.767 35.3913ZM35.4134 31.424C36.259 31.424 37.0057 31.2576 37.6534 30.9247C38.3011 30.5829 38.8094 30.1241 39.1783 29.5483C39.5471 28.9725 39.7315 28.3203 39.7315 27.5916V25.392C39.5516 25.509 39.3042 25.617 38.9893 25.7159C38.6835 25.8059 38.3371 25.8913 37.9503 25.9723C37.5634 26.0443 37.1766 26.1117 36.7898 26.1747C36.4029 26.2287 36.0521 26.2782 35.7372 26.3232C35.0625 26.4221 34.4732 26.5795 33.9695 26.7955C33.4657 27.0114 33.0743 27.3037 32.7955 27.6726C32.5166 28.0324 32.3771 28.4822 32.3771 29.022C32.3771 29.8047 32.6605 30.4029 33.2273 30.8168C33.803 31.2216 34.5317 31.424 35.4134 31.424ZM49.8995 35V14.2727H55.4727V17.8892H55.6886C56.0664 16.6027 56.7006 15.6312 57.5913 14.9744C58.4819 14.3087 59.5075 13.9759 60.668 13.9759C60.9558 13.9759 61.2662 13.9938 61.5991 14.0298C61.9319 14.0658 62.2243 14.1153 62.4762 14.1783V19.2791C62.2063 19.1982 61.833 19.1262 61.3562 19.0632C60.8794 19.0002 60.4431 18.9688 60.0472 18.9688C59.2016 18.9688 58.4459 19.1532 57.7802 19.522C57.1235 19.8819 56.6017 20.3857 56.2148 21.0334C55.837 21.6811 55.6481 22.4278 55.6481 23.2734V35H49.8995ZM73.9295 35.4048C71.7974 35.4048 69.9622 34.973 68.4238 34.1094C66.8945 33.2367 65.716 32.0043 64.8883 30.4119C64.0607 28.8106 63.6468 26.9169 63.6468 24.7308C63.6468 22.5987 64.0607 20.7275 64.8883 19.1172C65.716 17.5069 66.881 16.2519 68.3833 15.3523C69.8947 14.4527 71.667 14.0028 73.7001 14.0028C75.0675 14.0028 76.3405 14.2232 77.519 14.6641C78.7065 15.0959 79.7411 15.7481 80.6227 16.6207C81.5133 17.4934 82.206 18.5909 82.7008 19.9134C83.1956 21.2268 83.443 22.7652 83.443 24.5284V26.1072H65.9409V22.5447H78.0318C78.0318 21.7171 77.8519 20.9839 77.492 20.3452C77.1322 19.7064 76.6329 19.2071 75.9941 18.8473C75.3644 18.4785 74.6312 18.294 73.7946 18.294C72.9219 18.294 72.1483 18.4964 71.4735 18.9013C70.8078 19.2971 70.286 19.8324 69.9082 20.5071C69.5304 21.1728 69.3369 21.915 69.3279 22.7337V26.1207C69.3279 27.1463 69.5169 28.0324 69.8947 28.7791C70.2815 29.5258 70.8258 30.1016 71.5275 30.5064C72.2292 30.9112 73.0614 31.1136 74.024 31.1136C74.6627 31.1136 75.2475 31.0237 75.7782 30.8438C76.309 30.6638 76.7633 30.3939 77.1412 30.0341C77.519 29.6742 77.8069 29.2334 78.0048 28.7116L83.3216 29.0625C83.0517 30.34 82.4984 31.4555 81.6618 32.4091C80.8341 33.3537 79.7636 34.0914 78.4501 34.6222C77.1457 35.1439 75.6388 35.4048 73.9295 35.4048ZM98.3407 14.2727V18.5909H85.5481V14.2727H98.3407ZM88.4764 35V12.7749C88.4764 11.2725 88.7688 10.0265 89.3535 9.03693C89.9473 8.04735 90.7569 7.30516 91.7825 6.81037C92.8081 6.31558 93.9731 6.06818 95.2775 6.06818C96.1592 6.06818 96.9643 6.13565 97.693 6.2706C98.4307 6.40554 98.9795 6.52699 99.3393 6.63494L98.3137 10.9531C98.0888 10.8812 97.81 10.8137 97.4771 10.7507C97.1532 10.6877 96.8204 10.6562 96.4785 10.6562C95.6329 10.6562 95.0436 10.8542 94.7108 11.25C94.3779 11.6368 94.2115 12.1811 94.2115 12.8828V35H88.4764ZM107.021 35.3913C105.699 35.3913 104.52 35.1619 103.485 34.7031C102.451 34.2353 101.632 33.5471 101.029 32.6385C100.436 31.7209 100.139 30.5784 100.139 29.2109C100.139 28.0594 100.35 27.0923 100.773 26.3097C101.196 25.527 101.772 24.8973 102.5 24.4205C103.229 23.9437 104.057 23.5838 104.983 23.3409C105.919 23.098 106.9 22.9271 107.925 22.8281C109.131 22.7022 110.102 22.5852 110.84 22.4773C111.578 22.3603 112.113 22.1894 112.446 21.9645C112.779 21.7396 112.945 21.4067 112.945 20.9659V20.8849C112.945 20.0303 112.675 19.3691 112.135 18.9013C111.605 18.4335 110.849 18.1996 109.868 18.1996C108.834 18.1996 108.011 18.429 107.399 18.8878C106.787 19.3376 106.382 19.9044 106.184 20.5881L100.868 20.1562C101.137 18.8968 101.668 17.8082 102.46 16.8906C103.252 15.964 104.273 15.2533 105.523 14.7585C106.783 14.2547 108.24 14.0028 109.895 14.0028C111.047 14.0028 112.149 14.1378 113.201 14.4077C114.263 14.6776 115.203 15.0959 116.022 15.6626C116.849 16.2294 117.502 16.9581 117.978 17.8487C118.455 18.7303 118.694 19.7874 118.694 21.0199V35H113.242V32.1257H113.08C112.747 32.7734 112.302 33.3447 111.744 33.8395C111.186 34.3253 110.516 34.7076 109.733 34.9865C108.951 35.2564 108.047 35.3913 107.021 35.3913ZM108.667 31.424C109.513 31.424 110.26 31.2576 110.907 30.9247C111.555 30.5829 112.063 30.1241 112.432 29.5483C112.801 28.9725 112.985 28.3203 112.985 27.5916V25.392C112.806 25.509 112.558 25.617 112.243 25.7159C111.937 25.8059 111.591 25.8913 111.204 25.9723C110.817 26.0443 110.431 26.1117 110.044 26.1747C109.657 26.2287 109.306 26.2782 108.991 26.3232C108.316 26.4221 107.727 26.5795 107.223 26.7955C106.72 27.0114 106.328 27.3037 106.049 27.6726C105.77 28.0324 105.631 28.4822 105.631 29.022C105.631 29.8047 105.914 30.4029 106.481 30.8168C107.057 31.2216 107.786 31.424 108.667 31.424ZM140.399 20.1832L135.136 20.5071C135.046 20.0573 134.853 19.6525 134.556 19.2926C134.259 18.9238 133.868 18.6314 133.382 18.4155C132.905 18.1906 132.334 18.0781 131.668 18.0781C130.778 18.0781 130.027 18.267 129.415 18.6449C128.803 19.0137 128.497 19.5085 128.497 20.1293C128.497 20.6241 128.695 21.0424 129.091 21.3842C129.487 21.7261 130.166 22.0005 131.129 22.2074L134.88 22.9631C136.895 23.3769 138.397 24.0426 139.387 24.9602C140.377 25.8778 140.871 27.0833 140.871 28.5767C140.871 29.9351 140.471 31.1271 139.67 32.1527C138.879 33.1783 137.79 33.9789 136.405 34.5547C135.028 35.1214 133.441 35.4048 131.641 35.4048C128.897 35.4048 126.711 34.8336 125.083 33.6911C123.464 32.5395 122.515 30.9742 122.236 28.995L127.89 28.6982C128.061 29.5348 128.475 30.1735 129.131 30.6143C129.788 31.0462 130.629 31.2621 131.655 31.2621C132.662 31.2621 133.472 31.0687 134.084 30.6818C134.705 30.286 135.019 29.7777 135.028 29.157C135.019 28.6352 134.799 28.2079 134.367 27.875C133.935 27.5331 133.27 27.2723 132.37 27.0923L128.781 26.3771C126.756 25.9723 125.25 25.2706 124.26 24.272C123.279 23.2734 122.789 22.0005 122.789 20.4531C122.789 19.1217 123.149 17.9747 123.869 17.0121C124.597 16.0495 125.618 15.3073 126.932 14.7855C128.254 14.2637 129.802 14.0028 131.574 14.0028C134.192 14.0028 136.252 14.5561 137.754 15.6626C139.266 16.7692 140.147 18.276 140.399 20.1832Z" fill="white"/>
<path d="M152.696 33.5021V14.3942H157.527V33.5021H152.696ZM145.557 26.3636V21.5327H164.665V26.3636H145.557Z" fill="#EA3140"/>
</g>
<defs>
<filter id="filter0_d_1_67" x="0.776954" y="0.709559" width="178.178" height="47.1987" filterUnits="userSpaceOnUse" color-interpolation-filters="sRGB">
<feFlood flood-opacity="0" result="BackgroundImageFix"/>
<feColorMatrix in="SourceAlpha" type="matrix" values="0 0 0 0 0 0 0 0 0 0 0 0 0 0 0 0 0 0 127 0" result="hardAlpha"/>
<feOffset dx="5.35862" dy="3.57241"/>
<feGaussianBlur stdDeviation="4.46551"/>
<feComposite in2="hardAlpha" operator="out"/>
<feColorMatrix type="matrix" values="0 0 0 0 0 0 0 0 0 0 0 0 0 0 0 0 0 0 0.4 0"/>
<feBlend mode="normal" in2="BackgroundImageFix" result="effect1_dropShadow_1_67"/>
<feBlend mode="normal" in="SourceGraphic" in2="effect1_dropShadow_1_67" result="shape"/>
</filter>
</defs>
</svg>
